<svg width="24" height="24" viewBox="0 0 24 24" fill="none" xmlns="http://www.w3.org/2000/svg">
<path d="M10.1667 4.33333V3.41421C10.1667 2.52331 11.2438 2.07714 11.8738 2.70711L16 6.83333L11.8738 10.9596C11.2438 11.5895 10.1667 11.1434 10.1667 10.2525V9.33333C6 9.33333 3.08333 10.5833 1 13.5L1.66667 11L1.83333 10.6667C2.50172 8.94421 3.63423 7.4406 5.10521 6.32265C6.5762 5.2047 8.32814 4.51613 10.1667 4.33333Z" fill="#E0E0E0"/>
<path d="M13.8333 19.6667V20.5858C13.8333 21.4767 12.7562 21.9229 12.1262 21.2929L8 17.1667L12.1262 13.0404C12.7562 12.4105 13.8333 12.8566 13.8333 13.7475V14.6667C18 14.6667 20.9167 13.4167 23 10.5L22.3333 13L22.1667 13.3333C21.4983 15.0558 20.3658 16.5594 18.8948 17.6774C17.4238 18.7953 15.6719 19.4839 13.8333 19.6667Z" fill="#E0E0E0"/>
</svg>
