<svg width="24" height="24" viewBox="0 0 24 24" fill="none" xmlns="http://www.w3.org/2000/svg">
<path fill-rule="evenodd" clip-rule="evenodd" d="M20.854 10.308C21.454 12.719 19.931 15.175 17.451 15.794C17.1403 15.8707 16.831 15.9163 16.523 15.931L13.857 20.229C13.5826 20.6717 13.1464 20.9899 12.641 21.116L11.405 21.424C11.2776 21.4557 11.1451 21.462 11.0152 21.4426C10.8853 21.4231 10.7605 21.3782 10.648 21.3105C10.5355 21.2429 10.4373 21.1536 10.3593 21.048C10.2812 20.9424 10.2247 20.8225 10.193 20.695L9.913 19.575C9.84832 19.3155 9.83632 19.0458 9.87771 18.7816C9.91911 18.5174 10.0131 18.2642 10.154 18.037L12.599 14.094C12.2575 13.6309 12.0102 13.1053 11.871 12.547C11.271 10.136 12.793 7.68 15.274 7.061C17.755 6.442 20.252 7.896 20.854 10.308ZM16.982 11.788C17.534 11.651 17.872 11.105 17.738 10.569C17.605 10.033 17.05 9.71 16.498 9.848C15.948 9.985 15.608 10.531 15.742 11.067C15.876 11.603 16.432 11.926 16.982 11.788Z" fill="#E0E0E0"/>
<path fill-rule="evenodd" clip-rule="evenodd" d="M11.251 12.187C13.731 11.568 15.255 9.112 14.654 6.701C14.053 4.289 11.554 2.836 9.074 3.454C6.594 4.072 5.07 6.529 5.672 8.94C5.81118 9.49831 6.05851 10.0239 6.4 10.487L3.955 14.429C3.81405 14.6562 3.72011 14.9094 3.67871 15.1736C3.63732 15.4378 3.64932 15.7075 3.714 15.967L3.994 17.088C4.05826 17.345 4.22187 17.566 4.44891 17.7025C4.67596 17.839 4.94788 17.8798 5.205 17.816L6.441 17.508C6.9462 17.3822 7.38244 17.0643 7.657 16.622L10.323 12.324C10.631 12.3093 10.9403 12.2637 11.251 12.187ZM11.539 6.962C11.672 7.498 11.334 8.044 10.783 8.181C10.232 8.318 9.677 7.995 9.543 7.46C9.409 6.924 9.748 6.378 10.299 6.24C10.85 6.102 11.405 6.426 11.539 6.962Z" fill="#E0E0E0"/>
</svg>
