<svg width="24" height="24" viewBox="0 0 24 24" fill="none" xmlns="http://www.w3.org/2000/svg">
<path d="M21.789 1.48L22.379 2.07C23.192 2.884 23.069 4.327 22.102 5.293L9.93501 17.46L5.99301 18.902C5.49801 19.084 5.01601 18.848 4.91801 18.377C4.885 18.2061 4.90059 18.0294 4.96301 17.867L6.43301 13.891L18.566 1.757C19.533 0.791002 20.976 0.666002 21.789 1.48ZM9.40401 2.69C9.53533 2.69 9.66537 2.71587 9.78669 2.76612C9.90802 2.81638 10.0183 2.89004 10.1111 2.9829C10.204 3.07575 10.2776 3.18599 10.3279 3.30732C10.3781 3.42864 10.404 3.55868 10.404 3.69C10.404 3.82132 10.3781 3.95136 10.3279 4.07269C10.2776 4.19401 10.204 4.30425 10.1111 4.39711C10.0183 4.48997 9.90802 4.56363 9.78669 4.61388C9.66537 4.66414 9.53533 4.69 9.40401 4.69H5.40401C4.87357 4.69 4.36487 4.90072 3.98979 5.27579C3.61472 5.65086 3.40401 6.15957 3.40401 6.69V18.69C3.40401 19.2204 3.61472 19.7291 3.98979 20.1042C4.36487 20.4793 4.87357 20.69 5.40401 20.69H17.404C17.9344 20.69 18.4432 20.4793 18.8182 20.1042C19.1933 19.7291 19.404 19.2204 19.404 18.69V14.69C19.404 14.4248 19.5094 14.1704 19.6969 13.9829C19.8844 13.7954 20.1388 13.69 20.404 13.69C20.6692 13.69 20.9236 13.7954 21.1111 13.9829C21.2987 14.1704 21.404 14.4248 21.404 14.69V18.69C21.404 19.7509 20.9826 20.7683 20.2324 21.5184C19.4823 22.2686 18.4649 22.69 17.404 22.69H5.40401C4.34314 22.69 3.32573 22.2686 2.57558 21.5184C1.82543 20.7683 1.40401 19.7509 1.40401 18.69V6.69C1.40401 5.62914 1.82543 4.61172 2.57558 3.86158C3.32573 3.11143 4.34314 2.69 5.40401 2.69H9.40401Z" fill="#DDDDDD"/>
</svg>
