<svg width="24" height="24" viewBox="0 0 24 24" fill="none" xmlns="http://www.w3.org/2000/svg">
<path d="M21 5.7V3L19 1H13C12.7348 1 12.4804 1.10536 12.2929 1.29289C12.1054 1.48043 12 1.73478 12 2V9C12 9.26522 12.1054 9.51957 12.2929 9.70711C12.4804 9.89464 12.7348 10 13 10H16.7H20C20.5523 10 21 9.55228 21 9V5.7ZM18 7C18 7.83 17.33 8.5 16.5 8.5C15.67 8.5 15 7.83 15 7C15 6.17 15.67 5.5 16.5 5.5C17.33 5.5 18 6.17 18 7ZM13.5 2.5H18V4.5H13.5V2.5Z" fill="#E0E0E0"/>
<path d="M12 18.7V16L10 14H4C3.73478 14 3.48043 14.1054 3.29289 14.2929C3.10536 14.4804 3 14.7348 3 15V22C3 22.2652 3.10536 22.5196 3.29289 22.7071C3.48043 22.8946 3.73478 23 4 23H7.7H11C11.5523 23 12 22.5523 12 22V18.7ZM9 20C9 20.83 8.33 21.5 7.5 21.5C6.67 21.5 6 20.83 6 20C6 19.17 6.67 18.5 7.5 18.5C8.33 18.5 9 19.17 9 20ZM4.5 15.5H9V17.5H4.5V15.5Z" fill="#E0E0E0"/>
<path d="M23 16.7V14L21 12H15C14.7348 12 14.4804 12.1054 14.2929 12.2929C14.1054 12.4804 14 12.7348 14 13V20C14 20.2652 14.1054 20.5196 14.2929 20.7071C14.4804 20.8946 14.7348 21 15 21H18.7H22C22.5523 21 23 20.5523 23 20V16.7ZM20 18C20 18.83 19.33 19.5 18.5 19.5C17.67 19.5 17 18.83 17 18C17 17.17 17.67 16.5 18.5 16.5C19.33 16.5 20 17.17 20 18ZM15.5 13.5H20V15.5H15.5V13.5Z" fill="#E0E0E0"/>
<path d="M10 7.7V5L8 3H2C1.73478 3 1.48043 3.10536 1.29289 3.29289C1.10536 3.48043 1 3.73478 1 4V11C1 11.2652 1.10536 11.5196 1.29289 11.7071C1.48043 11.8946 1.73478 12 2 12H5.7H9C9.55229 12 10 11.5523 10 11V7.7ZM7 9C7 9.83 6.33 10.5 5.5 10.5C4.67 10.5 4 9.83 4 9C4 8.17 4.67 7.5 5.5 7.5C6.33 7.5 7 8.17 7 9ZM2.5 4.5H7V6.5H2.5V4.5Z" fill="#E0E0E0"/>
</svg>
