<svg width="24" height="24" viewBox="0 0 24 24" fill="none" xmlns="http://www.w3.org/2000/svg">
<g clip-path="url(#clip0_4_33)">
<path d="M19 10.8778V5.77778L15.2222 2H3.88889C3.38792 2 2.90748 2.19901 2.55324 2.55324C2.19901 2.90748 2 3.38792 2 3.88889V17.1111C2 17.6121 2.19901 18.0925 2.55324 18.4468C2.90748 18.801 3.38792 19 3.88889 19H10.8778L19 10.8778ZM13.3333 13.3333C13.3333 14.9011 12.0678 16.1667 10.5 16.1667C8.93222 16.1667 7.66667 14.9011 7.66667 13.3333C7.66667 11.7656 8.93222 10.5 10.5 10.5C12.0678 10.5 13.3333 11.7656 13.3333 13.3333ZM4.83333 4.83333H13.3333V8.61111H4.83333V4.83333Z" fill="#E0E0E0"/>
<path d="M16.684 23L14.4565 16.1015H17.305L18.3175 20.0435H18.412L19.438 16.1015H22.0435L19.7755 23H16.684Z" fill="#E0E0E0"/>
</g>
<defs>
<clipPath id="clip0_4_33">
<rect width="24" height="24" fill="white"/>
</clipPath>
</defs>
</svg>
