<svg width="24" height="24" viewBox="0 0 24 24" fill="none" xmlns="http://www.w3.org/2000/svg">
<path fill-rule="evenodd" clip-rule="evenodd" d="M7.527 2.657C8.77692 2.33496 10.0915 2.36473 11.3256 2.74302C12.5597 3.12131 13.6651 3.83339 14.5198 4.80059C15.3746 5.76778 15.9453 6.95244 16.1689 8.22366C16.3925 9.49488 16.2603 10.8032 15.787 12.004L20.386 15.897C20.7348 16.1918 21.0186 16.5557 21.2195 16.9658C21.4204 17.3759 21.534 17.8232 21.5531 18.2795C21.5722 18.7358 21.4964 19.191 21.3304 19.6165C21.1645 20.0419 20.9121 20.4283 20.5892 20.7512C20.2662 21.0741 19.8798 21.3264 19.4543 21.4922C19.0288 21.6581 18.5735 21.7338 18.1173 21.7146C17.661 21.6954 17.2137 21.5817 16.8036 21.3807C16.3936 21.1798 16.0297 20.8959 15.735 20.547L11.844 15.95C10.643 16.4241 9.33435 16.5569 8.06264 16.3336C6.79093 16.1103 5.60573 15.5397 4.63808 14.6849C3.67043 13.8301 2.95803 12.7243 2.57964 11.4898C2.20125 10.2553 2.17161 8.94026 2.494 7.69C2.53945 7.51433 2.6314 7.35414 2.76016 7.22629C2.88893 7.09843 3.04977 7.00763 3.22576 6.96343C3.40175 6.91923 3.58641 6.92326 3.7603 6.97509C3.9342 7.02693 4.09093 7.12465 4.214 7.258L7.259 10.565L9.55599 9.72L10.403 7.42L7.094 4.38C6.95985 4.25697 6.86145 4.09997 6.80919 3.92562C6.75693 3.75126 6.75277 3.56602 6.79713 3.38949C6.84149 3.21296 6.93274 3.05169 7.06121 2.92276C7.18969 2.79382 7.35062 2.702 7.527 2.657Z" fill="#E0E0E0"/>
</svg>
